<svg version="1.1" id="Layer_1" xmlns="http://www.w3.org/2000/svg" xmlns:xlink="http://www.w3.org/1999/xlink" x="0px" y="0px"
	 width="100%" viewBox="0 0 1254 1254" enable-background="new 0 0 1254 1254" xml:space="preserve">
<path fill="#000000" opacity="1.000000" stroke="none" 
	d="
M702.000000,1255.000000 
	C468.000000,1255.000000 234.500000,1255.000000 1.000000,1255.000000 
	C1.000000,837.000000 1.000000,419.000000 1.000000,1.000000 
	C419.000000,1.000000 837.000000,1.000000 1255.000000,1.000000 
	C1255.000000,419.000000 1255.000000,837.000000 1255.000000,1255.000000 
	C1070.833374,1255.000000 886.666687,1255.000000 702.000000,1255.000000 
M796.008423,779.486389 
	C799.901733,776.260254 803.998596,773.247986 807.652588,769.770325 
	C821.915344,756.195435 833.198425,740.326233 842.428772,723.024841 
	C853.358887,702.537598 859.213318,680.367371 860.709412,657.402527 
	C861.614441,643.510315 860.893127,629.236511 858.718567,615.479431 
	C854.792419,590.641174 845.526550,567.602051 831.252380,546.653503 
	C822.656128,534.037903 812.489319,522.788452 801.091309,512.880066 
	C787.445190,501.017334 772.048157,491.688751 755.089417,484.901276 
	C737.785278,477.975647 719.940186,473.706970 701.411133,473.177521 
	C690.610046,472.868896 679.726746,474.011841 668.936890,475.074432 
	C653.254150,476.618896 638.448792,481.726135 624.334290,488.401398 
	C603.265381,498.365631 585.049194,512.149597 569.492615,529.774109 
	C553.198303,548.234436 541.196106,568.952759 534.158875,592.345093 
	C530.694397,603.861389 528.272522,615.913269 527.248779,627.882812 
	C526.103577,641.271729 526.232666,654.915771 527.407532,668.308472 
	C528.269409,678.134216 531.526978,687.782532 534.081299,697.413269 
	C535.348145,702.189636 537.435913,706.748230 539.354065,711.952759 
	C542.821472,708.037720 545.410461,705.114441 548.019409,702.168701 
	C540.851501,683.509277 536.655518,664.153992 537.241943,644.240295 
	C537.617859,631.476013 539.614441,618.635620 542.147949,606.084351 
	C547.567444,579.235596 560.859985,556.125183 578.845459,535.838867 
	C593.794617,518.977295 611.888184,506.111023 632.620483,496.996185 
	C651.716125,488.600891 671.756653,484.257782 692.456604,484.239380 
	C703.773132,484.229340 715.162903,486.230225 726.392883,488.089661 
	C743.243103,490.879639 758.567505,497.884338 773.148254,506.606079 
	C789.147827,516.176453 802.570007,528.618713 814.478333,542.894775 
	C824.824219,555.297668 832.386169,569.246643 838.511780,584.049683 
	C845.043579,599.834534 848.756775,616.411560 849.832581,633.351013 
	C850.987427,651.534363 849.049316,669.503418 844.162292,687.269958 
	C837.032043,713.191528 824.185974,735.682739 806.114380,755.327515 
	C796.775330,765.479553 785.918762,773.861511 774.274963,781.212952 
	C753.004700,794.642212 729.659668,802.224182 704.693726,803.762024 
	C692.950195,804.485352 681.024414,802.962463 669.227295,801.931091 
	C653.119080,800.522888 638.319092,794.434387 624.038879,787.402710 
	C601.759827,776.432251 584.225708,759.691040 568.781677,740.470215 
	C565.092529,735.878906 565.800964,732.055847 568.053772,727.619751 
	C572.210632,719.434326 576.355408,711.242493 580.450134,703.026001 
	C581.162109,701.597473 581.603455,700.034119 582.169800,698.533020 
	C581.866028,698.378296 581.562256,698.223572 581.258484,698.068848 
	C561.483643,721.874878 541.708801,745.680847 520.998352,770.613281 
	C524.554565,770.341309 527.025452,769.463867 528.961060,770.133606 
	C534.711853,772.123718 537.149048,768.891357 540.131897,764.848694 
	C545.482544,757.596680 551.514038,750.846924 557.279480,743.864807 
	C562.203491,749.822571 566.392151,755.477478 571.176819,760.572693 
	C587.248596,777.687805 605.618530,791.591675 627.290222,801.125061 
	C643.986267,808.469604 661.301453,813.518127 679.361328,814.787964 
	C696.728638,816.009033 714.168640,815.234802 731.300537,811.042236 
	C754.938110,805.257690 776.393860,795.104492 796.008423,779.486389 
M423.985229,482.513641 
	C395.966431,500.864471 367.976746,519.260010 339.902069,537.524902 
	C334.852112,540.810364 330.849304,544.221558 332.932648,551.084351 
	C333.262390,552.170593 332.698456,553.528198 332.477234,555.336487 
	C333.685364,554.783630 334.693878,554.468384 335.544098,553.911499 
	C353.999908,541.822510 372.474518,529.761536 390.865601,517.574646 
	C401.345978,510.629761 411.643463,503.409302 422.107635,496.439606 
	C426.100677,493.779999 430.202423,489.642395 434.473907,489.346741 
	C447.841187,488.421570 461.312988,489.006836 475.000000,489.006836 
	C475.000000,491.328949 475.000000,493.136322 475.000000,494.943665 
	C475.000000,598.400513 474.999969,701.857300 475.000305,805.314148 
	C475.000305,806.646912 474.835083,808.010193 475.067352,809.301636 
	C475.222900,810.166443 475.745422,811.277588 476.447388,811.681702 
	C481.389465,814.527405 486.999756,811.239990 486.999756,805.595642 
	C487.000092,699.806458 487.005493,594.017273 486.975311,488.228088 
	C486.974335,484.798187 487.754639,480.480530 486.020660,478.242676 
	C484.813110,476.684143 479.922302,477.995422 476.676880,477.997192 
	C464.015503,478.004089 451.343811,478.298157 438.697601,477.860199 
	C433.282227,477.672638 428.713593,478.773468 423.985229,482.513641 
M960.971619,480.766785 
	C946.592163,454.233124 924.761658,443.853882 894.455566,450.970764 
	C908.510986,431.504425 922.066772,412.729950 936.312317,393.000305 
	C931.193481,393.000305 927.855469,392.831482 924.550537,393.088684 
	C923.336975,393.183105 921.799072,393.993042 921.089905,394.970520 
	C903.335693,419.441772 885.777405,444.055542 867.953186,468.475403 
	C857.633301,482.613922 853.767578,498.072266 857.003357,515.283508 
	C858.996826,525.886780 863.705566,535.434631 871.433777,542.633972 
	C884.379761,554.694092 899.652344,560.745789 917.997803,558.174011 
	C928.961182,556.637024 938.618286,552.831238 946.729858,545.652161 
	C965.286743,529.228516 970.918213,504.438904 960.971619,480.766785 
z"/>
<path fill="#FFFFFF" opacity="1.000000" stroke="none" 
	d="
M795.750671,779.745544 
	C776.393860,795.104492 754.938110,805.257690 731.300537,811.042236 
	C714.168640,815.234802 696.728638,816.009033 679.361328,814.787964 
	C661.301453,813.518127 643.986267,808.469604 627.290222,801.125061 
	C605.618530,791.591675 587.248596,777.687805 571.176819,760.572693 
	C566.392151,755.477478 562.203491,749.822571 557.279480,743.864807 
	C551.514038,750.846924 545.482544,757.596680 540.131897,764.848694 
	C537.149048,768.891357 534.711853,772.123718 528.961060,770.133606 
	C527.025452,769.463867 524.554565,770.341309 520.998352,770.613281 
	C541.708801,745.680847 561.483643,721.874878 581.258484,698.068848 
	C581.562256,698.223572 581.866028,698.378296 582.169800,698.533020 
	C581.603455,700.034119 581.162109,701.597473 580.450134,703.026001 
	C576.355408,711.242493 572.210632,719.434326 568.053772,727.619751 
	C565.800964,732.055847 565.092529,735.878906 568.781677,740.470215 
	C584.225708,759.691040 601.759827,776.432251 624.038879,787.402710 
	C638.319092,794.434387 653.119080,800.522888 669.227295,801.931091 
	C681.024414,802.962463 692.950195,804.485352 704.693726,803.762024 
	C729.659668,802.224182 753.004700,794.642212 774.274963,781.212952 
	C785.918762,773.861511 796.775330,765.479553 806.114380,755.327515 
	C824.185974,735.682739 837.032043,713.191528 844.162292,687.269958 
	C849.049316,669.503418 850.987427,651.534363 849.832581,633.351013 
	C848.756775,616.411560 845.043579,599.834534 838.511780,584.049683 
	C832.386169,569.246643 824.824219,555.297668 814.478333,542.894775 
	C802.570007,528.618713 789.147827,516.176453 773.148254,506.606079 
	C758.567505,497.884338 743.243103,490.879639 726.392883,488.089661 
	C715.162903,486.230225 703.773132,484.229340 692.456604,484.239380 
	C671.756653,484.257782 651.716125,488.600891 632.620483,496.996185 
	C611.888184,506.111023 593.794617,518.977295 578.845459,535.838867 
	C560.859985,556.125183 547.567444,579.235596 542.147949,606.084351 
	C539.614441,618.635620 537.617859,631.476013 537.241943,644.240295 
	C536.655518,664.153992 540.851501,683.509277 548.019409,702.168701 
	C545.410461,705.114441 542.821472,708.037720 539.354065,711.952759 
	C537.435913,706.748230 535.348145,702.189636 534.081299,697.413269 
	C531.526978,687.782532 528.269409,678.134216 527.407532,668.308472 
	C526.232666,654.915771 526.103577,641.271729 527.248779,627.882812 
	C528.272522,615.913269 530.694397,603.861389 534.158875,592.345093 
	C541.196106,568.952759 553.198303,548.234436 569.492615,529.774109 
	C585.049194,512.149597 603.265381,498.365631 624.334290,488.401398 
	C638.448792,481.726135 653.254150,476.618896 668.936890,475.074432 
	C679.726746,474.011841 690.610046,472.868896 701.411133,473.177521 
	C719.940186,473.706970 737.785278,477.975647 755.089417,484.901276 
	C772.048157,491.688751 787.445190,501.017334 801.091309,512.880066 
	C812.489319,522.788452 822.656128,534.037903 831.252380,546.653503 
	C845.526550,567.602051 854.792419,590.641174 858.718567,615.479431 
	C860.893127,629.236511 861.614441,643.510315 860.709412,657.402527 
	C859.213318,680.367371 853.358887,702.537598 842.428772,723.024841 
	C833.198425,740.326233 821.915344,756.195435 807.652588,769.770325 
	C803.998596,773.247986 799.901733,776.260254 795.750671,779.745544 
z"/>
<path fill="#FFFFFF" opacity="1.000000" stroke="none" 
	d="
M424.252502,482.250854 
	C428.713593,478.773468 433.282227,477.672638 438.697601,477.860199 
	C451.343811,478.298157 464.015503,478.004089 476.676880,477.997192 
	C479.922302,477.995422 484.813110,476.684143 486.020660,478.242676 
	C487.754639,480.480530 486.974335,484.798187 486.975311,488.228088 
	C487.005493,594.017273 487.000092,699.806458 486.999756,805.595642 
	C486.999756,811.239990 481.389465,814.527405 476.447388,811.681702 
	C475.745422,811.277588 475.222900,810.166443 475.067352,809.301636 
	C474.835083,808.010193 475.000305,806.646912 475.000305,805.314148 
	C474.999969,701.857300 475.000000,598.400513 475.000000,494.943665 
	C475.000000,493.136322 475.000000,491.328949 475.000000,489.006836 
	C461.312988,489.006836 447.841187,488.421570 434.473907,489.346741 
	C430.202423,489.642395 426.100677,493.779999 422.107635,496.439606 
	C411.643463,503.409302 401.345978,510.629761 390.865601,517.574646 
	C372.474518,529.761536 353.999908,541.822510 335.544098,553.911499 
	C334.693878,554.468384 333.685364,554.783630 332.477234,555.336487 
	C332.698456,553.528198 333.262390,552.170593 332.932648,551.084351 
	C330.849304,544.221558 334.852112,540.810364 339.902069,537.524902 
	C367.976746,519.260010 395.966431,500.864471 424.252502,482.250854 
z"/>
<path fill="#FFFFFF" opacity="1.000000" stroke="none" 
	d="
M960.986328,481.163513 
	C970.918213,504.438904 965.286743,529.228516 946.729858,545.652161 
	C938.618286,552.831238 928.961182,556.637024 917.997803,558.174011 
	C899.652344,560.745789 884.379761,554.694092 871.433777,542.633972 
	C863.705566,535.434631 858.996826,525.886780 857.003357,515.283508 
	C853.767578,498.072266 857.633301,482.613922 867.953186,468.475403 
	C885.777405,444.055542 903.335693,419.441772 921.089905,394.970520 
	C921.799072,393.993042 923.336975,393.183105 924.550537,393.088684 
	C927.855469,392.831482 931.193481,393.000305 936.312317,393.000305 
	C922.066772,412.729950 908.510986,431.504425 894.455566,450.970764 
	C924.761658,443.853882 946.592163,454.233124 960.986328,481.163513 
M915.086487,547.972534 
	C916.160522,547.648499 917.214600,547.161316 918.311890,547.026672 
	C926.238892,546.053772 933.120850,542.687378 938.985840,537.459900 
	C952.011230,525.850525 956.325256,511.415314 953.067932,494.283752 
	C948.749146,471.568909 929.543884,458.957611 909.366028,459.244965 
	C898.063171,459.405945 888.121582,464.357025 879.667908,472.627655 
	C862.956116,488.977722 862.672791,518.167542 879.730957,535.170837 
	C889.196167,544.605713 901.001770,548.271240 915.086487,547.972534 
z"/>
<path fill="#000000" opacity="1.000000" stroke="none" 
	d="
M914.632812,547.985352 
	C901.001770,548.271240 889.196167,544.605713 879.730957,535.170837 
	C862.672791,518.167542 862.956116,488.977722 879.667908,472.627655 
	C888.121582,464.357025 898.063171,459.405945 909.366028,459.244965 
	C929.543884,458.957611 948.749146,471.568909 953.067932,494.283752 
	C956.325256,511.415314 952.011230,525.850525 938.985840,537.459900 
	C933.120850,542.687378 926.238892,546.053772 918.311890,547.026672 
	C917.214600,547.161316 916.160522,547.648499 914.632812,547.985352 
z"/>
</svg>